
<svg width="253" height="128" viewBox="0 0 253 128" fill="none" xmlns="http://www.w3.org/2000/svg">
<mask id="path-1-outside-1_2_2" maskUnits="userSpaceOnUse" x="-2" y="-0.5" width="256" height="130" fill="black">
<rect fill="white" x="-2" y="-0.5" width="256" height="130"/>
<path d="M74.4148 59.5H59.2948V35.56H38.2948V59.5H23.1748V0.699996H38.2948V23.8H59.2948V0.699996H74.4148V59.5ZM100.914 24.64C98.6741 24.64 97.5541 25.76 97.5541 28V32.62H111.834V28C111.834 25.76 110.714 24.64 108.474 24.64H100.914ZM124.854 58.66C114.046 59.78 104.246 60.34 95.4541 60.34C91.6461 60.34 88.5941 59.192 86.2981 56.896C84.0021 54.6 82.8541 51.548 82.8541 47.74V27.58C82.8541 23.38 84.0301 20.104 86.3821 17.752C88.7901 15.344 92.0941 14.14 96.2941 14.14H113.094C117.294 14.14 120.57 15.344 122.922 17.752C125.33 20.104 126.534 23.38 126.534 27.58V43.12H97.5541V46.48C97.5541 47.32 97.8341 48.02 98.3941 48.58C98.9541 49.14 99.6541 49.42 100.494 49.42C106.038 49.42 114.158 49 124.854 48.16V58.66ZM156.741 59.5C152.989 60.06 149.405 60.34 145.989 60.34C142.629 60.34 139.801 59.192 137.505 56.896C135.209 54.6 134.061 51.548 134.061 47.74V0.699996H148.761V45.64C148.761 46.48 149.041 47.18 149.601 47.74C150.161 48.3 150.861 48.58 151.701 48.58H156.741V59.5ZM185.288 59.5C181.536 60.06 177.952 60.34 174.536 60.34C171.176 60.34 168.348 59.192 166.052 56.896C163.756 54.6 162.608 51.548 162.608 47.74V0.699996H177.308V45.64C177.308 46.48 177.588 47.18 178.148 47.74C178.708 48.3 179.408 48.58 180.248 48.58H185.288V59.5ZM236.515 46.9C236.515 51.1 235.311 54.404 232.903 56.812C230.551 59.164 227.275 60.34 223.075 60.34H203.755C199.555 60.34 196.251 59.164 193.843 56.812C191.491 54.404 190.315 51.1 190.315 46.9V27.58C190.315 23.38 191.491 20.104 193.843 17.752C196.251 15.344 199.555 14.14 203.755 14.14H223.075C227.275 14.14 230.551 15.344 232.903 17.752C235.311 20.104 236.515 23.38 236.515 27.58V46.9ZM221.815 28.84C221.815 26.6 220.695 25.48 218.455 25.48H208.375C206.135 25.48 205.015 26.6 205.015 28.84V45.64C205.015 47.88 206.135 49 208.375 49H218.455C220.695 49 221.815 47.88 221.815 45.64V28.84ZM49.1984 67.7L59.2784 105.5L68.0984 67.7H84.4784L68.5184 126.5H52.5584L42.4784 89.96L32.3984 126.5H16.4384L0.478359 67.7H16.8584L25.6784 105.5L35.7584 67.7H49.1984ZM133.238 113.9C133.238 118.1 132.034 121.404 129.626 123.812C127.274 126.164 123.998 127.34 119.798 127.34H100.478C96.2777 127.34 92.9737 126.164 90.5657 123.812C88.2137 121.404 87.0377 118.1 87.0377 113.9V94.58C87.0377 90.38 88.2137 87.104 90.5657 84.752C92.9737 82.344 96.2777 81.14 100.478 81.14H119.798C123.998 81.14 127.274 82.344 129.626 84.752C132.034 87.104 133.238 90.38 133.238 94.58V113.9ZM118.538 95.84C118.538 93.6 117.418 92.48 115.178 92.48H105.098C102.858 92.48 101.738 93.6 101.738 95.84V112.64C101.738 114.88 102.858 116 105.098 116H115.178C117.418 116 118.538 114.88 118.538 112.64V95.84ZM166.408 94.16C162.88 94.16 159.24 95 155.488 96.68V126.5H140.788V81.98H153.808L154.648 87.44C159.464 83.24 164.504 81.14 169.768 81.14H173.548V94.16H166.408ZM202.105 126.5C198.353 127.06 194.769 127.34 191.353 127.34C187.993 127.34 185.165 126.192 182.869 123.896C180.573 121.6 179.425 118.548 179.425 114.74V67.7H194.125V112.64C194.125 113.48 194.405 114.18 194.965 114.74C195.525 115.3 196.225 115.58 197.065 115.58H202.105V126.5ZM239.471 126.5L238.631 122.3C235.999 124.036 233.283 125.324 230.483 126.164C227.739 126.948 225.415 127.34 223.511 127.34H219.731C215.923 127.34 212.871 126.192 210.575 123.896C208.279 121.6 207.131 118.548 207.131 114.74V95.42C207.131 91.22 208.307 87.944 210.659 85.592C213.067 83.184 216.371 81.98 220.571 81.98H237.791V67.7H252.491V126.5H239.471ZM227.711 115.16C230.679 115.16 234.039 114.6 237.791 113.48V93.32H225.191C222.951 93.32 221.831 94.44 221.831 96.68V112.22C221.831 113.06 222.111 113.76 222.671 114.32C223.231 114.88 223.931 115.16 224.771 115.16H227.711Z"/>
</mask>
<path d="M74.4148 59.5V60.7H75.6148V59.5H74.4148ZM59.2948 59.5H58.0948V60.7H59.2948V59.5ZM59.2948 35.56H60.4948V34.36H59.2948V35.56ZM38.2948 35.56V34.36H37.0948V35.56H38.2948ZM38.2948 59.5V60.7H39.4948V59.5H38.2948ZM23.1748 59.5H21.9748V60.7H23.1748V59.5ZM23.1748 0.699996V-0.500004H21.9748V0.699996H23.1748ZM38.2948 0.699996H39.4948V-0.500004H38.2948V0.699996ZM38.2948 23.8H37.0948V25H38.2948V23.8ZM59.2948 23.8V25H60.4948V23.8H59.2948ZM59.2948 0.699996V-0.500004H58.0948V0.699996H59.2948ZM74.4148 0.699996H75.6148V-0.500004H74.4148V0.699996ZM74.4148 58.3H59.2948V60.7H74.4148V58.3ZM60.4948 59.5V35.56H58.0948V59.5H60.4948ZM59.2948 34.36H38.2948V36.76H59.2948V34.36ZM37.0948 35.56V59.5H39.4948V35.56H37.0948ZM38.2948 58.3H23.1748V60.7H38.2948V58.3ZM24.3748 59.5V0.699996H21.9748V59.5H24.3748ZM23.1748 1.9H38.2948V-0.500004H23.1748V1.9ZM37.0948 0.699996V23.8H39.4948V0.699996H37.0948ZM38.2948 25H59.2948V22.6H38.2948V25ZM60.4948 23.8V0.699996H58.0948V23.8H60.4948ZM59.2948 1.9H74.4148V-0.500004H59.2948V1.9ZM73.2148 0.699996V59.5H75.6148V0.699996H73.2148ZM97.5541 32.62H96.3541V33.82H97.5541V32.62ZM111.834 32.62V33.82H113.034V32.62H111.834ZM124.854 58.66L124.978 59.8536L126.054 59.7421V58.66H124.854ZM86.2981 56.896L85.4496 57.7445L85.4496 57.7445L86.2981 56.896ZM86.3821 17.752L87.2307 18.6005L87.2307 18.6005L86.3821 17.752ZM122.922 17.752L122.064 18.5905L122.074 18.6006L122.084 18.6105L122.922 17.752ZM126.534 43.12V44.32H127.734V43.12H126.534ZM97.5541 43.12V41.92H96.3541V43.12H97.5541ZM98.3941 48.58L99.2427 47.7315L99.2427 47.7315L98.3941 48.58ZM124.854 48.16H126.054V46.8621L124.76 46.9637L124.854 48.16ZM100.914 23.44C99.6092 23.44 98.41 23.7671 97.5456 24.6315C96.6812 25.4959 96.3541 26.695 96.3541 28H98.7541C98.7541 27.065 98.9871 26.5841 99.2427 26.3285C99.4983 26.0729 99.9791 25.84 100.914 25.84V23.44ZM96.3541 28V32.62H98.7541V28H96.3541ZM97.5541 33.82H111.834V31.42H97.5541V33.82ZM113.034 32.62V28H110.634V32.62H113.034ZM113.034 28C113.034 26.695 112.707 25.4959 111.843 24.6315C110.978 23.7671 109.779 23.44 108.474 23.44V25.84C109.409 25.84 109.89 26.0729 110.146 26.3285C110.401 26.5841 110.634 27.065 110.634 28H113.034ZM108.474 23.44H100.914V25.84H108.474V23.44ZM124.73 57.4664C113.954 58.5831 104.197 59.14 95.4541 59.14V61.54C104.296 61.54 114.138 60.9769 124.978 59.8536L124.73 57.4664ZM95.4541 59.14C91.9051 59.14 89.1789 58.0797 87.1467 56.0475L85.4496 57.7445C88.0094 60.3043 91.3872 61.54 95.4541 61.54V59.14ZM87.1467 56.0475C85.1144 54.0152 84.0541 51.289 84.0541 47.74H81.6541C81.6541 51.807 82.8899 55.1848 85.4496 57.7445L87.1467 56.0475ZM84.0541 47.74V27.58H81.6541V47.74H84.0541ZM84.0541 27.58C84.0541 23.6102 85.1591 20.6721 87.2307 18.6005L85.5336 16.9035C82.9012 19.5359 81.6541 23.1498 81.6541 27.58H84.0541ZM87.2307 18.6005C89.3634 16.4678 92.3336 15.34 96.2941 15.34V12.94C91.8547 12.94 88.2168 14.2202 85.5336 16.9035L87.2307 18.6005ZM96.2941 15.34H113.094V12.94H96.2941V15.34ZM113.094 15.34C117.056 15.34 119.991 16.4681 122.064 18.5905L123.781 16.9135C121.15 14.2199 117.532 12.94 113.094 12.94V15.34ZM122.084 18.6105C124.206 20.6835 125.334 23.6182 125.334 27.58H127.734C127.734 23.1418 126.454 19.5245 123.761 16.8935L122.084 18.6105ZM125.334 27.58V43.12H127.734V27.58H125.334ZM126.534 41.92H97.5541V44.32H126.534V41.92ZM96.3541 43.12V46.48H98.7541V43.12H96.3541ZM96.3541 46.48C96.3541 47.6168 96.7459 48.6288 97.5456 49.4285L99.2427 47.7315C98.9224 47.4112 98.7541 47.0232 98.7541 46.48H96.3541ZM97.5456 49.4285C98.3454 50.2283 99.3573 50.62 100.494 50.62V48.22C99.951 48.22 99.5629 48.0517 99.2427 47.7315L97.5456 49.4285ZM100.494 50.62C106.086 50.62 114.244 50.197 124.948 49.3563L124.76 46.9637C114.072 47.803 105.99 48.22 100.494 48.22V50.62ZM123.654 48.16V58.66H126.054V48.16H123.654ZM156.741 59.5L156.918 60.6869L157.941 60.5342V59.5H156.741ZM137.505 56.896L138.354 56.0475L138.354 56.0475L137.505 56.896ZM134.061 0.699996V-0.500004H132.861V0.699996H134.061ZM148.761 0.699996H149.961V-0.500004H148.761V0.699996ZM156.741 48.58H157.941V47.38H156.741V48.58ZM156.564 58.3131C152.865 58.8653 149.34 59.14 145.989 59.14V61.54C149.471 61.54 153.114 61.2547 156.918 60.6869L156.564 58.3131ZM145.989 59.14C142.935 59.14 140.416 58.1098 138.354 56.0475L136.657 57.7445C139.186 60.2742 142.323 61.54 145.989 61.54V59.14ZM138.354 56.0475C136.322 54.0152 135.261 51.289 135.261 47.74H132.861C132.861 51.807 134.097 55.1848 136.657 57.7445L138.354 56.0475ZM135.261 47.74V0.699996H132.861V47.74H135.261ZM134.061 1.9H148.761V-0.500004H134.061V1.9ZM147.561 0.699996V45.64H149.961V0.699996H147.561ZM147.561 45.64C147.561 46.7768 147.953 47.7888 148.753 48.5885L150.45 46.8915C150.13 46.5712 149.961 46.1832 149.961 45.64H147.561ZM148.753 48.5885C149.553 49.3883 150.564 49.78 151.701 49.78V47.38C151.158 47.38 150.77 47.2117 150.45 46.8915L148.753 48.5885ZM151.701 49.78H156.741V47.38H151.701V49.78ZM155.541 48.58V59.5H157.941V48.58H155.541ZM185.288 59.5L185.465 60.6869L186.488 60.5342V59.5H185.288ZM166.052 56.896L166.901 56.0475L166.901 56.0475L166.052 56.896ZM162.608 0.699996V-0.500004H161.408V0.699996H162.608ZM177.308 0.699996H178.508V-0.500004H177.308V0.699996ZM185.288 48.58H186.488V47.38H185.288V48.58ZM185.111 58.3131C181.411 58.8653 177.887 59.14 174.536 59.14V61.54C178.018 61.54 181.661 61.2547 185.465 60.6869L185.111 58.3131ZM174.536 59.14C171.482 59.14 168.963 58.1098 166.901 56.0475L165.204 57.7445C167.733 60.2742 170.87 61.54 174.536 61.54V59.14ZM166.901 56.0475C164.868 54.0152 163.808 51.289 163.808 47.74H161.408C161.408 51.807 162.644 55.1848 165.204 57.7445L166.901 56.0475ZM163.808 47.74V0.699996H161.408V47.74H163.808ZM162.608 1.9H177.308V-0.500004H162.608V1.9ZM176.108 0.699996V45.64H178.508V0.699996H176.108ZM176.108 45.64C176.108 46.7768 176.5 47.7888 177.3 48.5885L178.997 46.8915C178.676 46.5712 178.508 46.1832 178.508 45.64H176.108ZM177.3 48.5885C178.099 49.3883 179.111 49.78 180.248 49.78V47.38C179.705 47.38 179.317 47.2117 178.997 46.8915L177.3 48.5885ZM180.248 49.78H185.288V47.38H180.248V49.78ZM184.088 48.58V59.5H186.488V48.58H184.088ZM232.903 56.812L233.752 57.6605L233.752 57.6605L232.903 56.812ZM193.843 56.812L192.985 57.6505L192.994 57.6606L193.005 57.6705L193.843 56.812ZM193.843 17.752L194.692 18.6005L194.692 18.6005L193.843 17.752ZM232.903 17.752L232.045 18.5905L232.054 18.6006L232.065 18.6105L232.903 17.752ZM235.315 46.9C235.315 50.8605 234.187 53.8307 232.055 55.9635L233.752 57.6605C236.435 54.9773 237.715 51.3395 237.715 46.9H235.315ZM232.055 55.9635C229.983 58.035 227.045 59.14 223.075 59.14V61.54C227.505 61.54 231.119 60.293 233.752 57.6605L232.055 55.9635ZM223.075 59.14H203.755V61.54H223.075V59.14ZM203.755 59.14C199.787 59.14 196.813 58.0354 194.682 55.9535L193.005 57.6705C195.689 60.2926 199.323 61.54 203.755 61.54V59.14ZM194.702 55.9735C192.62 53.8421 191.515 50.8684 191.515 46.9H189.115C189.115 51.3316 190.363 54.9659 192.985 57.6505L194.702 55.9735ZM191.515 46.9V27.58H189.115V46.9H191.515ZM191.515 27.58C191.515 23.6102 192.62 20.6721 194.692 18.6005L192.995 16.9035C190.362 19.5359 189.115 23.1498 189.115 27.58H191.515ZM194.692 18.6005C196.824 16.4678 199.795 15.34 203.755 15.34V12.94C199.316 12.94 195.678 14.2202 192.995 16.9035L194.692 18.6005ZM203.755 15.34H223.075V12.94H203.755V15.34ZM223.075 15.34C227.037 15.34 229.972 16.4681 232.045 18.5905L233.762 16.9135C231.131 14.2199 227.513 12.94 223.075 12.94V15.34ZM232.065 18.6105C234.187 20.6835 235.315 23.6182 235.315 27.58H237.715C237.715 23.1418 236.435 19.5245 233.742 16.8935L232.065 18.6105ZM235.315 27.58V46.9H237.715V27.58H235.315ZM223.015 28.84C223.015 27.535 222.688 26.3359 221.824 25.4715C220.959 24.6071 219.76 24.28 218.455 24.28V26.68C219.39 26.68 219.871 26.9129 220.127 27.1685C220.382 27.4241 220.615 27.905 220.615 28.84H223.015ZM218.455 24.28H208.375V26.68H218.455V24.28ZM208.375 24.28C207.07 24.28 205.871 24.6071 205.007 25.4715C204.142 26.3359 203.815 27.535 203.815 28.84H206.215C206.215 27.905 206.448 27.4241 206.704 27.1685C206.959 26.9129 207.44 26.68 208.375 26.68V24.28ZM203.815 28.84V45.64H206.215V28.84H203.815ZM203.815 45.64C203.815 46.945 204.142 48.1441 205.007 49.0085C205.871 49.8729 207.07 50.2 208.375 50.2V47.8C207.44 47.8 206.959 47.5671 206.704 47.3115C206.448 47.0559 206.215 46.575 206.215 45.64H203.815ZM208.375 50.2H218.455V47.8H208.375V50.2ZM218.455 50.2C219.76 50.2 220.959 49.8729 221.824 49.0085C222.688 48.1441 223.015 46.945 223.015 45.64H220.615C220.615 46.575 220.382 47.0559 220.127 47.3115C219.871 47.5671 219.39 47.8 218.455 47.8V50.2ZM223.015 45.64V28.84H220.615V45.64H223.015ZM49.1984 67.7L50.3578 67.3908L50.1203 66.5H49.1984V67.7ZM59.2784 105.5L58.1189 105.809L60.447 105.773L59.2784 105.5ZM68.0984 67.7V66.5H67.1461L66.9298 67.4273L68.0984 67.7ZM84.4784 67.7L85.6365 68.0143L86.0475 66.5H84.4784V67.7ZM68.5184 126.5V127.7H69.4361L69.6765 126.814L68.5184 126.5ZM52.5584 126.5L51.4016 126.819L51.6446 127.7H52.5584V126.5ZM42.4784 89.96L43.6352 89.6409L42.4784 85.4475L41.3216 89.6409L42.4784 89.96ZM32.3984 126.5V127.7H33.3121L33.5552 126.819L32.3984 126.5ZM16.4384 126.5L15.2803 126.814L15.5207 127.7H16.4384V126.5ZM0.478359 67.7V66.5H-1.09077L-0.679738 68.0143L0.478359 67.7ZM16.8584 67.7L18.027 67.4273L17.8106 66.5H16.8584V67.7ZM25.6784 105.5L24.5098 105.773L26.8378 105.809L25.6784 105.5ZM35.7584 67.7V66.5H34.8364L34.5989 67.3908L35.7584 67.7ZM48.0389 68.0092L58.1189 105.809L60.4378 105.191L50.3578 67.3908L48.0389 68.0092ZM60.447 105.773L69.267 67.9727L66.9298 67.4273L58.1098 105.227L60.447 105.773ZM68.0984 68.9H84.4784V66.5H68.0984V68.9ZM83.3203 67.3857L67.3603 126.186L69.6765 126.814L85.6365 68.0143L83.3203 67.3857ZM68.5184 125.3H52.5584V127.7H68.5184V125.3ZM53.7152 126.181L43.6352 89.6409L41.3216 90.2791L51.4016 126.819L53.7152 126.181ZM41.3216 89.6409L31.2416 126.181L33.5552 126.819L43.6352 90.2791L41.3216 89.6409ZM32.3984 125.3H16.4384V127.7H32.3984V125.3ZM17.5965 126.186L1.63646 67.3857L-0.679738 68.0143L15.2803 126.814L17.5965 126.186ZM0.478359 68.9H16.8584V66.5H0.478359V68.9ZM15.6898 67.9727L24.5098 105.773L26.847 105.227L18.027 67.4273L15.6898 67.9727ZM26.8378 105.809L36.9178 68.0092L34.5989 67.3908L24.5189 105.191L26.8378 105.809ZM35.7584 68.9H49.1984V66.5H35.7584V68.9ZM129.626 123.812L130.474 124.661L130.474 124.661L129.626 123.812ZM90.5657 123.812L89.7073 124.65L89.7171 124.661L89.7272 124.67L90.5657 123.812ZM90.5657 84.752L91.4143 85.6005L91.4143 85.6005L90.5657 84.752ZM129.626 84.752L128.767 85.5905L128.777 85.6006L128.787 85.6105L129.626 84.752ZM132.038 113.9C132.038 117.861 130.91 120.831 128.777 122.963L130.474 124.661C133.157 121.977 134.438 118.339 134.438 113.9H132.038ZM128.777 122.963C126.706 125.035 123.767 126.14 119.798 126.14V128.54C124.228 128.54 127.842 127.293 130.474 124.661L128.777 122.963ZM119.798 126.14H100.478V128.54H119.798V126.14ZM100.478 126.14C96.5093 126.14 93.5357 125.035 91.4042 122.954L89.7272 124.67C92.4118 127.293 96.0461 128.54 100.478 128.54V126.14ZM91.4242 122.974C89.3423 120.842 88.2377 117.868 88.2377 113.9H85.8377C85.8377 118.332 87.0852 121.966 89.7073 124.65L91.4242 122.974ZM88.2377 113.9V94.58H85.8377V113.9H88.2377ZM88.2377 94.58C88.2377 90.6102 89.3427 87.6721 91.4143 85.6005L89.7172 83.9035C87.0848 86.5359 85.8377 90.1498 85.8377 94.58H88.2377ZM91.4143 85.6005C93.547 83.4678 96.5172 82.34 100.478 82.34V79.94C96.0383 79.94 92.4004 81.2202 89.7172 83.9035L91.4143 85.6005ZM100.478 82.34H119.798V79.94H100.478V82.34ZM119.798 82.34C123.76 82.34 126.694 83.4681 128.767 85.5905L130.484 83.9135C127.853 81.2199 124.236 79.94 119.798 79.94V82.34ZM128.787 85.6105C130.91 87.6835 132.038 90.6182 132.038 94.58H134.438C134.438 90.1418 133.158 86.5245 130.464 83.8935L128.787 85.6105ZM132.038 94.58V113.9H134.438V94.58H132.038ZM119.738 95.84C119.738 94.535 119.411 93.3359 118.546 92.4715C117.682 91.6071 116.483 91.28 115.178 91.28V93.68C116.113 93.68 116.594 93.9129 116.849 94.1685C117.105 94.4241 117.338 94.905 117.338 95.84H119.738ZM115.178 91.28H105.098V93.68H115.178V91.28ZM105.098 91.28C103.793 91.28 102.594 91.6071 101.729 92.4715C100.865 93.3359 100.538 94.535 100.538 95.84H102.938C102.938 94.905 103.171 94.4241 103.426 94.1685C103.682 93.9129 104.163 93.68 105.098 93.68V91.28ZM100.538 95.84V112.64H102.938V95.84H100.538ZM100.538 112.64C100.538 113.945 100.865 115.144 101.729 116.009C102.594 116.873 103.793 117.2 105.098 117.2V114.8C104.163 114.8 103.682 114.567 103.426 114.311C103.171 114.056 102.938 113.575 102.938 112.64H100.538ZM105.098 117.2H115.178V114.8H105.098V117.2ZM115.178 117.2C116.483 117.2 117.682 116.873 118.546 116.009C119.411 115.144 119.738 113.945 119.738 112.64H117.338C117.338 113.575 117.105 114.056 116.849 114.311C116.594 114.567 116.113 114.8 115.178 114.8V117.2ZM119.738 112.64V95.84H117.338V112.64H119.738ZM155.488 96.68L154.997 95.5848L154.288 95.9025V96.68H155.488ZM155.488 126.5V127.7H156.688V126.5H155.488ZM140.788 126.5H139.588V127.7H140.788V126.5ZM140.788 81.98V80.78H139.588V81.98H140.788ZM153.808 81.98L154.994 81.7975L154.837 80.78H153.808V81.98ZM154.648 87.44L153.462 87.6225L153.793 89.7774L155.437 88.3444L154.648 87.44ZM173.548 81.14H174.748V79.94H173.548V81.14ZM173.548 94.16V95.36H174.748V94.16H173.548ZM166.408 92.96C162.685 92.96 158.878 93.847 154.997 95.5848L155.978 97.7752C159.601 96.153 163.075 95.36 166.408 95.36V92.96ZM154.288 96.68V126.5H156.688V96.68H154.288ZM155.488 125.3H140.788V127.7H155.488V125.3ZM141.988 126.5V81.98H139.588V126.5H141.988ZM140.788 83.18H153.808V80.78H140.788V83.18ZM152.622 82.1625L153.462 87.6225L155.834 87.2575L154.994 81.7975L152.622 82.1625ZM155.437 88.3444C160.083 84.2924 164.853 82.34 169.768 82.34V79.94C164.155 79.94 158.845 82.1876 153.859 86.5356L155.437 88.3444ZM169.768 82.34H173.548V79.94H169.768V82.34ZM172.348 81.14V94.16H174.748V81.14H172.348ZM173.548 92.96H166.408V95.36H173.548V92.96ZM202.105 126.5L202.282 127.687L203.305 127.534V126.5H202.105ZM182.869 123.896L183.717 123.047L183.717 123.047L182.869 123.896ZM179.425 67.7V66.5H178.225V67.7H179.425ZM194.125 67.7H195.325V66.5H194.125V67.7ZM202.105 115.58H203.305V114.38H202.105V115.58ZM201.927 125.313C198.228 125.865 194.703 126.14 191.353 126.14V128.54C194.834 128.54 198.477 128.255 202.282 127.687L201.927 125.313ZM191.353 126.14C188.298 126.14 185.779 125.11 183.717 123.047L182.02 124.745C184.55 127.274 187.687 128.54 191.353 128.54V126.14ZM183.717 123.047C181.685 121.015 180.625 118.289 180.625 114.74H178.225C178.225 118.807 179.46 122.185 182.02 124.745L183.717 123.047ZM180.625 114.74V67.7H178.225V114.74H180.625ZM179.425 68.9H194.125V66.5H179.425V68.9ZM192.925 67.7V112.64H195.325V67.7H192.925ZM192.925 112.64C192.925 113.777 193.316 114.789 194.116 115.589L195.813 113.891C195.493 113.571 195.325 113.183 195.325 112.64H192.925ZM194.116 115.589C194.916 116.388 195.928 116.78 197.065 116.78V114.38C196.521 114.38 196.133 114.212 195.813 113.891L194.116 115.589ZM197.065 116.78H202.105V114.38H197.065V116.78ZM200.905 115.58V126.5H203.305V115.58H200.905ZM239.471 126.5L238.295 126.735L238.488 127.7H239.471V126.5ZM238.631 122.3L239.808 122.065L239.459 120.317L237.971 121.298L238.631 122.3ZM230.483 126.164L230.813 127.318L230.821 127.316L230.828 127.313L230.483 126.164ZM210.575 123.896L209.727 124.745L209.727 124.745L210.575 123.896ZM210.659 85.592L211.508 86.4405L211.508 86.4405L210.659 85.592ZM237.791 81.98V83.18H238.991V81.98H237.791ZM237.791 67.7V66.5H236.591V67.7H237.791ZM252.491 67.7H253.691V66.5H252.491V67.7ZM252.491 126.5V127.7H253.691V126.5H252.491ZM237.791 113.48L238.135 114.63L238.991 114.374V113.48H237.791ZM237.791 93.32H238.991V92.12H237.791V93.32ZM222.671 114.32L223.52 113.471L223.52 113.471L222.671 114.32ZM240.648 126.265L239.808 122.065L237.455 122.535L238.295 126.735L240.648 126.265ZM237.971 121.298C235.429 122.975 232.818 124.211 230.139 125.015L230.828 127.313C233.749 126.437 236.57 125.097 239.292 123.302L237.971 121.298ZM230.154 125.01C227.469 125.777 225.263 126.14 223.511 126.14V128.54C225.568 128.54 228.01 128.119 230.813 127.318L230.154 125.01ZM223.511 126.14H219.731V128.54H223.511V126.14ZM219.731 126.14C216.182 126.14 213.456 125.08 211.424 123.047L209.727 124.745C212.287 127.304 215.664 128.54 219.731 128.54V126.14ZM211.424 123.047C209.392 121.015 208.331 118.289 208.331 114.74H205.931C205.931 118.807 207.167 122.185 209.727 124.745L211.424 123.047ZM208.331 114.74V95.42H205.931V114.74H208.331ZM208.331 95.42C208.331 91.4502 209.436 88.5121 211.508 86.4405L209.811 84.7435C207.179 87.3759 205.931 90.9898 205.931 95.42H208.331ZM211.508 86.4405C213.641 84.3077 216.611 83.18 220.571 83.18V80.78C216.132 80.78 212.494 82.0602 209.811 84.7435L211.508 86.4405ZM220.571 83.18H237.791V80.78H220.571V83.18ZM238.991 81.98V67.7H236.591V81.98H238.991ZM237.791 68.9H252.491V66.5H237.791V68.9ZM251.291 67.7V126.5H253.691V67.7H251.291ZM252.491 125.3H239.471V127.7H252.491V125.3ZM227.711 116.36C230.826 116.36 234.305 115.773 238.135 114.63L237.448 112.33C233.774 113.427 230.533 113.96 227.711 113.96V116.36ZM238.991 113.48V93.32H236.591V113.48H238.991ZM237.791 92.12H225.191V94.52H237.791V92.12ZM225.191 92.12C223.887 92.12 222.687 92.4471 221.823 93.3115C220.959 94.1759 220.631 95.375 220.631 96.68H223.031C223.031 95.745 223.264 95.2641 223.52 95.0085C223.776 94.7529 224.256 94.52 225.191 94.52V92.12ZM220.631 96.68V112.22H223.031V96.68H220.631ZM220.631 112.22C220.631 113.357 221.023 114.369 221.823 115.169L223.52 113.471C223.2 113.151 223.031 112.763 223.031 112.22H220.631ZM221.823 115.169C222.623 115.968 223.635 116.36 224.771 116.36V113.96C224.228 113.96 223.84 113.792 223.52 113.471L221.823 115.169ZM224.771 116.36H227.711V113.96H224.771V116.36Z" fill="#2A1454" mask="url(#path-1-outside-1_2_2)"/>
</svg>
