<svg version="1.1" id="Layer_1" xmlns="http://www.w3.org/2000/svg" xmlns:xlink="http://www.w3.org/1999/xlink" x="0px" y="0px"
	 width="5 rem" height="5rem" viewBox="0 0 1080 566" enable-background="new 0 0 1080 566" xml:space="preserve">
<path fill="transparent" opacity="1.000000" stroke="none" 
	d="
M797.000000,567.000000 
	C531.333435,567.000000 266.166840,567.000000 1.000178,567.000000 
	C1.000118,378.333466 1.000118,189.666931 1.000059,1.000304 
	C360.999756,1.000203 720.999512,1.000203 1080.999512,1.000101 
	C1080.999634,189.666367 1080.999634,378.332733 1080.999756,566.999512 
	C986.500000,567.000000 892.000000,567.000000 797.000000,567.000000 
M639.324341,555.232422 
	C647.768494,555.475464 656.358887,556.826050 664.626648,555.733948 
	C682.551880,553.366150 698.488464,546.088318 712.373474,534.069458 
	C750.781555,500.823334 789.505554,467.942535 828.013733,434.811646 
	C863.872498,403.960266 899.624695,372.985077 935.401367,342.038391 
	C946.232971,332.669098 957.237854,323.479980 967.719360,313.730988 
	C981.856445,300.581970 982.151550,276.360962 965.911011,262.708344 
	C962.468872,259.814789 959.040405,256.904633 955.625000,253.979538 
	C866.684265,177.806473 777.642517,101.750725 688.895447,25.352680 
	C671.297180,10.203160 640.187317,8.145907 622.407288,23.368917 
	C601.951233,40.883064 581.462708,58.359253 561.034851,75.812195 
	C561.256653,76.331993 561.301147,76.719444 561.518250,76.904930 
	C588.474548,99.937927 615.456055,122.941399 642.408569,145.978775 
	C672.037842,171.303970 701.655212,196.643204 731.251343,222.007141 
	C755.914001,243.143158 780.571411,264.285736 805.153076,285.515808 
	C810.261414,289.927612 810.123840,290.134888 805.193848,294.355896 
	C775.333008,319.922272 745.460144,345.474579 715.594849,371.035736 
	C674.466309,406.236816 633.339539,441.439941 592.215210,476.645905 
	C581.482239,485.834290 570.760986,495.036407 559.652039,504.560028 
	C574.313538,516.862549 588.293701,529.229492 602.976562,540.696594 
	C613.261475,548.729065 625.474792,553.111206 639.324341,555.232422 
M399.597626,168.088181 
	C404.788849,163.654541 409.984558,159.226135 415.170563,154.786392 
	C449.209503,125.645409 483.216949,96.467438 517.332581,67.416519 
	C520.503113,64.716652 520.467896,63.143429 517.297791,60.542046 
	C509.187286,53.886520 501.066650,47.204956 493.410522,40.041649 
	C473.903900,21.790512 451.699097,11.629247 424.248260,12.751055 
	C403.726410,13.589704 385.838043,19.772013 370.448700,33.008331 
	C331.429138,66.568901 292.580658,100.328331 253.664001,134.008514 
	C229.733643,154.718887 205.803299,175.429260 181.874084,196.140930 
	C160.211380,214.890839 138.524292,233.612732 116.901161,252.408173 
	C108.310959,259.875031 102.590286,269.022888 103.103867,280.761292 
	C103.586960,291.802826 109.495216,300.271912 117.672012,307.286407 
	C134.992447,322.144867 152.318619,336.996704 169.655579,351.835876 
	C243.180466,414.767761 316.666138,477.745636 390.322266,540.523560 
	C396.161255,545.500183 402.675842,550.603760 409.771210,553.010071 
	C429.153442,559.583435 447.235321,556.259521 462.989624,542.457397 
	C474.014465,532.798706 485.245697,523.375732 496.375885,513.837097 
	C504.545013,506.836060 512.699768,499.818298 521.203247,492.513947 
	C437.547272,420.890717 354.409729,349.711365 270.940918,278.248352 
	C314.299286,241.117294 356.674866,204.827881 399.597626,168.088181 
z"/>
<path fill="#FFFFFF" opacity="1.000000" stroke="none" 
	d="
M638.887878,555.148071 
	C625.474792,553.111206 613.261475,548.729065 602.976562,540.696594 
	C588.293701,529.229492 574.313538,516.862549 559.652039,504.560028 
	C570.760986,495.036407 581.482239,485.834290 592.215210,476.645905 
	C633.339539,441.439941 674.466309,406.236816 715.594849,371.035736 
	C745.460144,345.474579 775.333008,319.922272 805.193848,294.355896 
	C810.123840,290.134888 810.261414,289.927612 805.153076,285.515808 
	C780.571411,264.285736 755.914001,243.143158 731.251343,222.007141 
	C701.655212,196.643204 672.037842,171.303970 642.408569,145.978775 
	C615.456055,122.941399 588.474548,99.937927 561.518250,76.904930 
	C561.301147,76.719444 561.256653,76.331993 561.034851,75.812195 
	C581.462708,58.359253 601.951233,40.883064 622.407288,23.368917 
	C640.187317,8.145907 671.297180,10.203160 688.895447,25.352680 
	C777.642517,101.750725 866.684265,177.806473 955.625000,253.979538 
	C959.040405,256.904633 962.468872,259.814789 965.911011,262.708344 
	C982.151550,276.360962 981.856445,300.581970 967.719360,313.730988 
	C957.237854,323.479980 946.232971,332.669098 935.401367,342.038391 
	C899.624695,372.985077 863.872498,403.960266 828.013733,434.811646 
	C789.505554,467.942535 750.781555,500.823334 712.373474,534.069458 
	C698.488464,546.088318 682.551880,553.366150 664.626648,555.733948 
	C656.358887,556.826050 647.768494,555.475464 638.887878,555.148071 
z"/>
<path fill="#FFFFFF" opacity="1.000000" stroke="none" 
	d="
M399.324036,168.313324 
	C356.674866,204.827881 314.299286,241.117294 270.940918,278.248352 
	C354.409729,349.711365 437.547272,420.890717 521.203247,492.513947 
	C512.699768,499.818298 504.545013,506.836060 496.375885,513.837097 
	C485.245697,523.375732 474.014465,532.798706 462.989624,542.457397 
	C447.235321,556.259521 429.153442,559.583435 409.771210,553.010071 
	C402.675842,550.603760 396.161255,545.500183 390.322266,540.523560 
	C316.666138,477.745636 243.180466,414.767761 169.655579,351.835876 
	C152.318619,336.996704 134.992447,322.144867 117.672012,307.286407 
	C109.495216,300.271912 103.586960,291.802826 103.103867,280.761292 
	C102.590286,269.022888 108.310959,259.875031 116.901161,252.408173 
	C138.524292,233.612732 160.211380,214.890839 181.874084,196.140930 
	C205.803299,175.429260 229.733643,154.718887 253.664001,134.008514 
	C292.580658,100.328331 331.429138,66.568901 370.448700,33.008331 
	C385.838043,19.772013 403.726410,13.589704 424.248260,12.751055 
	C451.699097,11.629247 473.903900,21.790512 493.410522,40.041649 
	C501.066650,47.204956 509.187286,53.886520 517.297791,60.542046 
	C520.467896,63.143429 520.503113,64.716652 517.332581,67.416519 
	C483.216949,96.467438 449.209503,125.645409 415.170563,154.786392 
	C409.984558,159.226135 404.788849,163.654541 399.324036,168.313324 
z"/>
</svg>